HIERARCHY
ROOT Hips
{
	OFFSET	0.00	0.00	0.00
	CHANNELS 6 Xposition Yposition Zposition Zrotation Xrotation Yrotation
	JOINT LeftUpLeg
	{
		OFFSET	 0.126116	-0.014019	-0.065224
		CHANNELS 3 Zrotation Xrotation Yrotation
		JOINT LeftLeg
		{
			OFFSET	 0.000000	 0.000000	 0.569914
			CHANNELS 3 Zrotation Xrotation Yrotation
			JOINT LeftFoot
			{
				OFFSET	 0.000000	 0.000000	 0.544423
				CHANNELS 3 Zrotation Xrotation Yrotation
				JOINT LeftToeBase
				{
					OFFSET	 0.000000	 0.000000	 0.207117
					CHANNELS 3 Zrotation Xrotation Yrotation
					End Site
					{
						OFFSET	 0.000000	 0.000000	 0.207117
					}
				}
			}
		}
	}
	JOINT RightUpLeg
	{
		OFFSET	-0.124023	-0.008373	-0.065224
		CHANNELS 3 Zrotation Xrotation Yrotation
		JOINT RightLeg
		{
			OFFSET	 0.000000	 0.000000	 0.570047
			CHANNELS 3 Zrotation Xrotation Yrotation
			JOINT RightFoot
			{
				OFFSET	 0.000000	 0.000000	 0.544354
				CHANNELS 3 Zrotation Xrotation Yrotation
				JOINT RightToeBase
				{
					OFFSET	 0.000000	 0.000000	 0.207540
					CHANNELS 3 Zrotation Xrotation Yrotation
					End Site
					{
						OFFSET	 0.000000	 0.000000	 0.207540
					}
				}
			}
		}
	}
	JOINT Spine
	{
		OFFSET	 0.000184	-0.007763	 0.117403
		CHANNELS 3 Zrotation Xrotation Yrotation
		JOINT Spine1
		{
			OFFSET	 0.000000	 0.000000	 0.137269
			CHANNELS 3 Zrotation Xrotation Yrotation
			JOINT Spine2
			{
				OFFSET	 0.000000	 0.000000	 0.156879
				CHANNELS 3 Zrotation Xrotation Yrotation
				JOINT LeftShoulder
				{
					OFFSET	 0.080501	-0.002496	 0.160144
					CHANNELS 3 Zrotation Xrotation Yrotation
					JOINT LeftArm
					{
						OFFSET	 0.000000	 0.000000	 0.164363
						CHANNELS 3 Zrotation Xrotation Yrotation
						JOINT LeftForeArm
						{
							OFFSET	 0.000000	 0.000000	 0.364576
							CHANNELS 3 Zrotation Xrotation Yrotation
							JOINT LeftHand
							{
								OFFSET	 0.000000	 0.000000	 0.360812
								CHANNELS 3 Zrotation Xrotation Yrotation
								JOINT LeftHandIndex1
								{
									OFFSET	 0.000000	 0.000000	 0.086006
									CHANNELS 3 Zrotation Xrotation Yrotation
									JOINT LeftHandIndex2
									{
										OFFSET	 0.000000	 0.000000	 0.047236
										CHANNELS 3 Zrotation Xrotation Yrotation
										JOINT LeftHandIndex3
										{
											OFFSET	-0.004284	-0.000551	 0.038166
											CHANNELS 3 Zrotation Xrotation Yrotation
											End Site
											{
												OFFSET	-0.004284	-0.000551	 0.038166
											}
										}
									}
								}
							}
						}
					}
				}
				JOINT Neck
				{
					OFFSET	 0.000000	 0.000000	 0.176489
					CHANNELS 3 Zrotation Xrotation Yrotation
					JOINT Head
					{
						OFFSET	 0.000000	-0.001747	 0.077940
						CHANNELS 3 Zrotation Xrotation Yrotation
						End Site
						{
							OFFSET	 0.000000	-0.001747	 0.077940
						}
					}
				}
				JOINT RightShoulder
				{
					OFFSET	-0.080363	 0.000306	 0.159706
					CHANNELS 3 Zrotation Xrotation Yrotation
					JOINT RightArm
					{
						OFFSET	 0.000000	 0.000000	 0.164196
						CHANNELS 3 Zrotation Xrotation Yrotation
						JOINT RightForeArm
						{
							OFFSET	 0.000000	 0.000000	 0.365611
							CHANNELS 3 Zrotation Xrotation Yrotation
							JOINT RightHand
							{
								OFFSET	 0.000000	 0.000000	 0.360648
								CHANNELS 3 Zrotation Xrotation Yrotation
								JOINT RightHandIndex1
								{
									OFFSET	 0.000000	 0.000000	 0.069977
									CHANNELS 3 Zrotation Xrotation Yrotation
									JOINT RightHandIndex2
									{
										OFFSET	 0.000000	 0.000000	 0.052305
										CHANNELS 3 Zrotation Xrotation Yrotation
										JOINT RightHandIndex3
										{
											OFFSET	 0.009002	-0.000782	 0.042196
											CHANNELS 3 Zrotation Xrotation Yrotation
											End Site
											{
												OFFSET	 0.009002	-0.000782	 0.042196
											}
										}
									}
								}
							}
						}
					}
				}
			}
		}
	}
}
MOTION
Frames:    8
Frame Time: 0.03333334
 0.012024	 0.033449	 1.201467	 5.446600	-0.825074	-3.014047	-3.842385	-11.917350	-171.251400	 1.149138	-38.330540	 0.493958	 50.667580	 80.848760	-54.848550	-2.368913	 31.695760	-0.071760	-2.865934	-31.981570	-175.261200	 11.190450	-49.602850	 9.155055	 28.020920	 78.278320	-25.514750	 2.358965	 33.000720	 0.103246	-5.384593	 8.434522	 1.679480	-1.128725	 1.882457	-0.141193	 0.084904	-2.311656	 0.160671	-94.052570	 58.971680	 175.144000	 16.657660	 34.918890	-42.801050	-1.962915	-0.042626	-0.837107	-3.023180	-28.050930	-9.397556	-4.866917	 19.326210	-2.796412	-3.873190	 21.579340	 2.194278	-4.805033	 5.583565	 0.144742	-0.050939	-5.096240	 0.214164	-1.913193	 2.152206	 2.524712	 89.737430	 61.719540	 179.893400	-20.954910	 55.812400	 9.109657	-1.320269	-2.892634	 15.361000	-3.904732	-13.128410	 0.650484	 6.282710	 24.006330	-0.545246	 1.989235	 43.848090	-7.085359	 0.701426	 23.502510	 3.480462
 0.011582	 0.024605	 1.201151	 5.677486	-0.609964	-3.025477	-4.083726	-11.626870	-171.297700	 1.240740	-38.169280	 0.548813	 51.475260	 80.988360	-55.732390	-2.368520	 31.760630	-0.073226	-3.486922	-32.749790	-175.229000	 11.298690	-48.399310	 9.074648	 31.842090	 79.033550	-29.735150	 2.359010	 32.994660	 0.103094	-5.650037	 8.293550	 1.623034	-1.150246	 1.849265	-0.093432	 0.042482	-2.350533	 0.148480	-94.109590	 58.980960	 175.021100	 16.444940	 34.342830	-43.129040	-2.137754	-0.039744	-0.904313	-3.270262	-28.856440	-9.811379	-4.864902	 19.377520	-2.799786	-3.869961	 21.620470	 2.191001	-4.804304	 5.592119	 0.144237	-0.039205	-5.104781	 0.230942	-1.917489	 2.137429	 2.493748	 89.715350	 61.759600	 179.840200	-20.791400	 56.107060	 8.527576	-1.411316	-2.931034	 15.499430	-3.797387	-13.721050	 0.622591	 6.277075	 23.606000	-0.550861	 2.035766	 43.456460	-7.126584	 0.787553	 23.118230	 3.438002
 0.010228	-0.008648	 1.199758	 6.210689	 0.068063	-3.216486	-4.666483	-10.218390	-171.307900	 1.460686	-37.274890	 0.671086	 55.041370	 81.492180	-59.501950	-2.366786	 32.042560	-0.079640	-4.828496	-34.930220	-174.980400	 11.296250	-43.176490	 8.313106	 39.346610	 79.086800	-38.569980	 2.360192	 32.818470	 0.099015	-6.388921	 7.777549	 1.594956	-1.223179	 1.965586	 0.056193	-0.072709	-2.527835	 0.098297	-94.277750	 58.990060	 174.661400	 15.444770	 32.324450	-44.331900	-2.966326	-0.026729	-1.133189	-4.278759	-31.703370	-10.585540	-4.854377	 19.625120	-2.811706	-3.857159	 21.783260	 2.177999	-4.798662	 5.658632	 0.140341	-0.013808	-5.149361	 0.284236	-1.950910	 2.093603	 2.443181	 89.621830	 61.887330	 179.614500	-20.170410	 57.057030	 6.692602	-1.944021	-3.028192	 15.515340	-3.693308	-15.676160	 0.265269	 6.254271	 22.170290	-0.588841	 2.179199	 42.211220	-7.253057	 1.106240	 21.674110	 3.285088
 0.008399	-0.055453	 1.196918	 6.515520	 0.703150	-3.591766	-5.112855	-7.628465	-171.195600	 1.606702	-35.556260	 0.729275	 59.312000	 82.009500	-63.925720	-2.362150	 32.764090	-0.096203	-5.050504	-36.212050	-174.430100	 10.566400	-34.343440	 6.445827	 47.411190	 77.991530	-47.773490	 2.357366	 33.234780	 0.108687	-7.180192	 7.132546	 1.749337	-1.307221	 2.543335	 0.195856	-0.152537	-2.840940	 0.045202	-94.427450	 58.973530	 174.344900	 13.746990	 29.952650	-45.854860	-4.189342	-0.004220	-1.430994	-5.878939	-35.213310	-11.011890	-4.835388	 20.027610	-2.821649	-3.836214	 22.048230	 2.156715	-4.782183	 5.852315	 0.128954	 0.009509	-5.233092	 0.331512	-1.983991	 2.025872	 2.413352	 89.496300	 62.010250	 179.309600	-19.050900	 58.063810	 4.655501	-2.959009	-2.983343	 14.464600	-3.888660	-18.268810	-0.658853	 6.216515	 20.100070	-0.666829	 2.402939	 40.148590	-7.448345	 1.557489	 19.570620	 3.080301
 0.006148	-0.097497	 1.192641	 6.695465	 0.943440	-3.875468	-5.481220	-4.903352	-171.149600	 1.739055	-33.943910	 0.774204	 59.449470	 82.208850	-64.149020	-2.351492	 34.276230	-0.131592	-4.417367	-36.572370	-173.831600	 10.084430	-27.133030	 4.991960	 60.271320	 77.310430	-61.209340	 2.345979	 34.780220	 0.145238	-8.022745	 6.830933	 1.901742	-1.360879	 3.052456	 0.285504	-0.165652	-3.144871	 0.015097	-94.504740	 58.938590	 174.186000	 12.200630	 28.516090	-46.877010	-5.002100	 0.018576	-1.720728	-7.801095	-38.325950	-11.981520	-4.830165	 20.347050	-2.886304	-3.811629	 22.356770	 2.131747	-4.754355	 6.178353	 0.109646	 0.052880	-5.325112	 0.349015	-1.947989	 1.968456	 2.289148	 89.407580	 62.028700	 179.094600	-17.607890	 58.678790	 2.717699	-3.924650	-2.855354	 13.322740	-4.015270	-21.029800	-1.693173	 6.181179	 17.975840	-0.712434	 2.668894	 37.489200	-7.676905	 1.996096	 17.462010	 2.895078
 0.002606	-0.140078	 1.185439	 6.959075	 0.950723	-3.958658	-6.008100	-1.992986	-171.332900	 2.026650	-32.697580	 0.904448	 54.047280	 82.039670	-58.881990	-2.325917	 37.312040	-0.205786	-4.042190	-38.559150	-173.528300	 10.304520	-23.796020	 4.510464	 53.427950	 75.124970	-55.061630	 2.335997	 35.999100	 0.174823	-9.105752	 6.869733	 1.931307	-1.384248	 3.350716	 0.343328	-0.156836	-3.455277	-0.016207	-94.539360	 58.982730	 174.105100	 10.724610	 27.745840	-47.744050	-5.470949	 0.044067	-2.030878	-10.434520	-41.761260	-14.096230	-4.852480	 20.525110	-3.068518	-3.784364	 22.696120	 2.104048	-4.714480	 6.642927	 0.081832	 0.123543	-5.417061	 0.334382	-1.834605	 1.972310	 2.065366	 89.357730	 61.891050	 178.979400	-16.007550	 59.058560	 0.069320	-4.665664	-2.915910	 13.305120	-3.921699	-24.177040	-2.537236	 6.168553	 15.784350	-0.628653	 2.900584	 34.970340	-7.872391	 2.435572	 15.288680	 2.723873
-0.003508	-0.191202	 1.175248	 7.225999	 0.781844	-3.472357	-6.588389	 1.708213	-172.225400	 2.197587	-31.330460	 0.959523	 38.098790	 80.381070	-42.750440	-2.249764	 43.740190	-0.380875	-3.026706	-41.533460	-173.581500	 8.885142	-22.940410	 3.788983	 31.540600	 70.491930	-31.841800	 2.339423	 35.592360	 0.164873	-10.475090	 6.870447	 1.506070	-1.371425	 4.008396	 0.357710	-0.157241	-3.754479	-0.093089	-94.497730	 59.258710	 174.147900	 9.238906	 27.375240	-48.783710	-6.118921	 0.080642	-2.397306	-13.919510	-45.141430	-16.900070	-4.882673	 20.639220	-3.279143	-3.761194	 22.981950	 2.080535	-4.660450	 7.267353	 0.043889	 0.206788	-5.479608	 0.266394	-1.638686	 2.068002	 2.011337	 89.355220	 61.582200	 178.984800	-14.468440	 59.179340	-2.890195	-5.197110	-3.110611	 14.069920	-3.882901	-27.663580	-3.050815	 6.214009	 13.376380	-0.277545	 3.056385	 33.161400	-8.001692	 2.887820	 12.992690	 2.563435
-0.009691	-0.239648	 1.167197	 7.648170	 0.342993	-2.654921	-6.780728	 5.779914	-173.597500	 1.302942	-29.207030	 0.463711	 22.208370	 75.982600	-25.537280	-2.106025	 51.348940	-0.635811	-1.029593	-42.554030	-173.429900	 6.338499	-22.614890	 2.740776	 15.340160	 64.069320	-12.246680	 2.339343	 35.601600	 0.165102	-11.839340	 6.999241	 0.716142	-1.431954	 4.681574	 0.453931	-0.196799	-3.895363	-0.260342	-94.435590	 59.307950	 174.273300	 8.232513	 27.033170	-49.440830	-6.865067	 0.120304	-2.721643	-16.267930	-46.848640	-18.499780	-4.895129	 20.770560	-3.394820	-3.748499	 23.137760	 2.067641	-4.609518	 7.850777	 0.007853	 0.290396	-5.460759	 0.249975	-1.465965	 2.269886	 2.214730	 89.321240	 61.405190	 178.910800	-13.368330	 59.107410	-4.543188	-5.403424	-3.039723	 14.086460	-3.691891	-30.312970	-2.773591	 6.292910	 11.368240	 0.144132	 3.180665	 31.647860	-8.103452	 3.218359	 11.279260	 2.456698
